<?xml version="1.0" encoding="UTF-8" standalone="no"?>
<svg xmlns="http://www.w3.org/2000/svg" version="1.1" width="400" height="400">)
<rect x="10.1818181818" y="11.2458803165" width="16" height="16" fill="#00ff00" stroke="#000000" stroke-width="2"/>
<rect x="19.5697010353" y="55.2427745306" width="16" height="16" fill="#00ff00" stroke="#000000" stroke-width="2"/>
<rect x="14.1818181818" y="191.233457173" width="8" height="8" fill="#00ff00" stroke="#000000" stroke-width="2"/>
<rect x="366.172412792" y="201.340105842" width="9" height="9" fill="#00ff00" stroke="#000000" stroke-width="2"/>
<rect x="210.44210356" y="10.1818181818" width="16" height="16" fill="#00ff00" stroke="#000000" stroke-width="2"/>
<rect x="186.855876152" y="194.424334656" width="10" height="10" fill="#00ff00" stroke="#000000" stroke-width="2"/>
<rect x="199.37305329" y="187.091518953" width="10" height="10" fill="#00ff00" stroke="#000000" stroke-width="2"/>
<rect x="185.29122901" y="175.359013829" width="10" height="10" fill="#00ff00" stroke="#000000" stroke-width="2"/>
<rect x="188.370202914" y="224.472821907" width="16" height="16" fill="#00ff00" stroke="#000000" stroke-width="2"/>
<rect x="188.370202914" y="303.667231492" width="16" height="16" fill="#00ff00" stroke="#000000" stroke-width="2"/>
<circle cx="103.085423947" cy="253.548868103" r="8"
fill="#ff0000" stroke="#000000" stroke-width="2"/><circle cx="346.160933698" cy="124.97221679" r="8"
fill="#ff0000" stroke="#000000" stroke-width="2"/><circle cx="69.890056669" cy="306.404008327" r="8"
fill="#ff0000" stroke="#000000" stroke-width="2"/><circle cx="123.517096905" cy="342.422706884" r="8"
fill="#ff0000" stroke="#000000" stroke-width="2"/><circle cx="281.708178225" cy="36.8196309873" r="8"
fill="#ff0000" stroke="#000000" stroke-width="2"/><circle cx="49.2303753157" cy="227.87086334" r="8"
fill="#ff0000" stroke="#000000" stroke-width="2"/><circle cx="219.693551205" cy="353.808227436" r="8"
fill="#ff0000" stroke="#000000" stroke-width="2"/><circle cx="164.010988123" cy="237.178078618" r="8"
fill="#ff0000" stroke="#000000" stroke-width="2"/><circle cx="311.154677774" cy="326.162679235" r="8"
fill="#ff0000" stroke="#000000" stroke-width="2"/><circle cx="110.347487924" cy="128.339821752" r="8"
fill="#ff0000" stroke="#000000" stroke-width="2"/><circle cx="56.6513669984" cy="349.0553931" r="8"
fill="#ff0000" stroke="#000000" stroke-width="2"/><circle cx="44.2100097063" cy="135.822035626" r="8"
fill="#ff0000" stroke="#000000" stroke-width="2"/><circle cx="94.5968197674" cy="284.247954925" r="8"
fill="#ff0000" stroke="#000000" stroke-width="2"/><circle cx="340.357592919" cy="381.818181818" r="8"
fill="#ff0000" stroke="#000000" stroke-width="2"/><circle cx="267.609033145" cy="67.353367867" r="8"
fill="#ff0000" stroke="#000000" stroke-width="2"/><circle cx="244.212782751" cy="138.250124512" r="8"
fill="#ff0000" stroke="#000000" stroke-width="2"/><circle cx="140.840918384" cy="146.690462564" r="8"
fill="#ff0000" stroke="#000000" stroke-width="2"/><circle cx="196.26167978" cy="358.616375406" r="8"
fill="#ff0000" stroke="#000000" stroke-width="2"/><circle cx="381.818181818" cy="175.46929034" r="8"
fill="#ff0000" stroke="#000000" stroke-width="2"/><circle cx="71.3689983396" cy="177.317767966" r="8"
fill="#ff0000" stroke="#000000" stroke-width="2"/>print '<line x1="69.890056669" y1="306.404008327" x2="196.370202914" y2="311.667231492" 
stroke-width="1" stroke="red"/>print '<line x1="123.517096905" y1="342.422706884" x2="196.370202914" y2="311.667231492" 
stroke-width="1" stroke="red"/>print '<line x1="196.26167978" y1="358.616375406" x2="196.370202914" y2="311.667231492" 
stroke-width="1" stroke="red"/>print '<line x1="71.3689983396" y1="177.317767966" x2="18.1818181818" y2="195.233457173" 
stroke-width="1" stroke="red"/>print '<line x1="44.2100097063" y1="135.822035626" x2="27.5697010353" y2="63.2427745306" 
stroke-width="1" stroke="red"/>print '<line x1="110.347487924" y1="128.339821752" x2="190.29122901" y2="180.359013829" 
stroke-width="1" stroke="red"/>print '<line x1="346.160933698" y1="124.97221679" x2="370.672412792" y2="205.840105842" 
stroke-width="1" stroke="red"/>print '<line x1="49.2303753157" y1="227.87086334" x2="18.1818181818" y2="195.233457173" 
stroke-width="1" stroke="red"/>print '<line x1="244.212782751" y1="138.250124512" x2="204.37305329" y2="192.091518953" 
stroke-width="1" stroke="red"/>print '<line x1="219.693551205" y1="353.808227436" x2="196.370202914" y2="311.667231492" 
stroke-width="1" stroke="red"/>print '<line x1="164.010988123" y1="237.178078618" x2="196.370202914" y2="232.472821907" 
stroke-width="1" stroke="red"/>print '<line x1="140.840918384" y1="146.690462564" x2="190.29122901" y2="180.359013829" 
stroke-width="1" stroke="red"/>print '<line x1="281.708178225" y1="36.8196309873" x2="218.44210356" y2="18.1818181818" 
stroke-width="1" stroke="red"/>print '<line x1="340.357592919" y1="381.818181818" x2="196.370202914" y2="311.667231492" 
stroke-width="1" stroke="red"/>print '<line x1="94.5968197674" y1="284.247954925" x2="196.370202914" y2="232.472821907" 
stroke-width="1" stroke="red"/>print '<line x1="267.609033145" y1="67.353367867" x2="218.44210356" y2="18.1818181818" 
stroke-width="1" stroke="red"/>print '<line x1="56.6513669984" y1="349.0553931" x2="196.370202914" y2="311.667231492" 
stroke-width="1" stroke="red"/>print '<line x1="311.154677774" y1="326.162679235" x2="196.370202914" y2="311.667231492" 
stroke-width="1" stroke="red"/>print '<line x1="381.818181818" y1="175.46929034" x2="370.672412792" y2="205.840105842" 
stroke-width="1" stroke="red"/>print '<line x1="103.085423947" y1="253.548868103" x2="196.370202914" y2="232.472821907" 
stroke-width="1" stroke="red"/><text x="3.18181818182" y="24.2458803165">0</text><text x="12.5697010353" y="68.2427745306">1</text><text x="3.18181818182" y="200.233457173">2</text><text x="355.672412792" y="210.840105842">3</text><text x="203.44210356" y="23.1818181818">4</text><text x="176.855876152" y="204.424334656">5</text><text x="189.37305329" y="197.091518953">6</text><text x="175.29122901" y="185.359013829">7</text><text x="181.370202914" y="237.472821907">8</text><text x="181.370202914" y="316.667231492">9</text><text x="88.0854239468" y="258.548868103">0</text><text x="331.160933698" y="129.97221679">1</text><text x="54.890056669" y="311.404008327">2</text><text x="108.517096905" y="347.422706884">3</text><text x="266.708178225" y="41.8196309873">4</text><text x="34.2303753157" y="232.87086334">5</text><text x="204.693551205" y="358.808227436">6</text><text x="149.010988123" y="242.178078618">7</text><text x="296.154677774" y="331.162679235">8</text><text x="95.3474879245" y="133.339821752">9</text><text x="41.6513669984" y="354.0553931">10</text><text x="29.2100097063" y="140.822035626">11</text><text x="79.5968197674" y="289.247954925">12</text><text x="325.357592919" y="386.818181818">13</text><text x="252.609033145" y="72.353367867">14</text><text x="229.212782751" y="143.250124512">15</text><text x="125.840918384" y="151.690462564">16</text><text x="181.26167978" y="363.616375406">17</text><text x="366.818181818" y="180.46929034">18</text><text x="56.3689983396" y="182.317767966">19</text></svg>
